HIERARCHY
ROOT Hips
{
  OFFSET 13.6774 106.653 -34.4427
  CHANNELS 6 Xposition Yposition Zposition Zrotation Xrotation Yrotation
  JOINT ToSpine
  {
    OFFSET -2.69724 7.43032 -0.144315
    CHANNELS 3 Zrotation Xrotation Yrotation
    JOINT Spine
    {
      OFFSET -0.0310711 10.7595 1.96963
      CHANNELS 3 Zrotation Xrotation Yrotation
      JOINT Spine1
      {
        OFFSET 19.9056 3.91189 0.764692
        CHANNELS 3 Zrotation Xrotation Yrotation
        JOINT Neck
        {
          OFFSET 25.9749 7.03908 -0.130764
          CHANNELS 3 Zrotation Xrotation Yrotation
          JOINT Head
          {
            OFFSET 9.52751 0.295786 -0.907742
            CHANNELS 3 Zrotation Xrotation Yrotation
            End Site
            {
              OFFSET 16.4037 0.713936 2.7358
            }
          }
        }
        JOINT LeftShoulder
        {
          OFFSET 17.7449 4.33886 11.7777
          CHANNELS 3 Zrotation Xrotation Yrotation
          JOINT LeftArm
          {
            OFFSET 0.911315 1.27913 9.80584
            CHANNELS 3 Zrotation Xrotation Yrotation
            JOINT LeftForeArm
            {
              OFFSET 28.6126 1.18197 -3.53199
              CHANNELS 3 Zrotation Xrotation Yrotation
              JOINT LeftHand
              {
                OFFSET 27.5088 0.0218783 0.327423
                CHANNELS 3 Zrotation Xrotation Yrotation
                End Site
                {
                  OFFSET 18.6038 -0.000155887 0.382096
                }
              }
            }
          }
        }
        JOINT RightShoulder
        {
          OFFSET 17.1009 2.89543 -12.2328
          CHANNELS 3 Zrotation Xrotation Yrotation
          JOINT RightArm
          {
            OFFSET 1.4228 0.178766 -10.211
            CHANNELS 3 Zrotation Xrotation Yrotation
            JOINT RightForeArm
            {
              OFFSET 28.733 1.87905 2.64907
              CHANNELS 3 Zrotation Xrotation Yrotation
              JOINT RightHand
              {
                OFFSET 27.4588 0.290562 -0.101845
                CHANNELS 3 Zrotation Xrotation Yrotation
                End Site
                {
                  OFFSET 17.8396 -0.255518 -0.000602873
                }
              }
            }
          }
        }
      }
    }
  }
  JOINT LeftUpLeg
  {
    OFFSET -5.61296 -2.22332 -10.2353
    CHANNELS 3 Zrotation Xrotation Yrotation
    JOINT LeftLeg
    {
      OFFSET 2.56703 -44.7417 -7.93097
      CHANNELS 3 Zrotation Xrotation Yrotation
      JOINT LeftFoot
      {
        OFFSET 3.16933 -46.5642 -3.96578
        CHANNELS 3 Zrotation Xrotation Yrotation
        JOINT LeftToeBase
        {
          OFFSET 0.346054 -6.02161 12.8035
          CHANNELS 3 Zrotation Xrotation Yrotation
          End Site
          {
            OFFSET 0.134235 -1.35082 5.13018
          }
        }
      }
    }
  }
  JOINT RightUpLeg
  {
    OFFSET -5.7928 -1.72406 10.6446
    CHANNELS 3 Zrotation Xrotation Yrotation
    JOINT RightLeg
    {
      OFFSET -2.57161 -44.7178 -7.85259
      CHANNELS 3 Zrotation Xrotation Yrotation
      JOINT RightFoot
      {
        OFFSET -3.10148 -46.5936 -4.03391
        CHANNELS 3 Zrotation Xrotation Yrotation
        JOINT RightToeBase
        {
          OFFSET -0.0828122 -6.13587 12.8035
          CHANNELS 3 Zrotation Xrotation Yrotation
          End Site
          {
            OFFSET -0.131328 -1.35082 5.13018
          }
        }
      }
    }
  }
}
MOTION
Frames: 10
Frame Time: 0.03333333333333333
0.0000 93.1000 0.0000 77.8543 1.7472 28.8301 -71.0144 -0.2264 87.9934 110.7243 66.2029 -36.0829 -7.6943 14.7431 10.9938 -115.0863 23.6407 144.5160 178.1540 73.2993 -144.4972 0.4962 -9.2171 -12.8339 -57.9163 36.8801 -138.9270 22.5990 -6.1104 -102.2535 0.3837 -0.0657 0.1609 -1.4469 5.9876 29.6047 -97.2479 -5.5154 45.0960 7.5134 0.6495 100.0694 0.1274 -0.0494 -0.4930 -51.6136 31.9350 115.0324 -1.5440 42.2787 11.6351 0.2309 -11.1511 -1.0265 2.1594 -6.0113 1.4206 -33.3668 -3.4919 66.6583 37.0581 81.6946 -15.9614 2.7230 6.1174 -2.3997 2.8263 -20.3956 -36.6446 
0.0000 93.1000 0.0000 79.8362 0.7559 23.7086 -71.0174 0.0024 87.9945 105.1404 66.9109 -30.8536 -5.5894 15.3574 8.6949 -113.1010 24.6590 144.4037 177.5843 73.6981 -142.3312 0.9927 -10.0025 -12.4449 -56.9962 35.1409 -141.8769 21.1844 -5.2472 -101.9276 0.4268 0.0761 -0.1132 -1.0002 5.6262 28.7020 -101.8730 -1.1443 49.0042 9.4257 1.3104 100.9275 -0.2497 -0.1664 -0.3814 -50.8957 26.9629 110.1898 -2.1264 50.4504 8.5614 -0.4219 -3.3158 -0.8229 2.5040 -7.2718 0.7828 -42.0742 -2.1470 59.7167 10.7978 67.6418 18.1555 8.2691 11.0674 -3.2656 2.8388 -12.4997 -30.6847 
0.0000 93.1000 0.0000 79.9291 -0.7924 18.9549 -71.0202 0.0759 87.9931 97.0546 67.4706 -23.6553 -3.7285 15.8133 7.1009 -113.0602 26.6285 144.3875 174.8467 74.5727 -139.4873 0.9250 -10.8042 -12.2548 -56.8704 33.4563 -144.9951 20.7355 -5.0723 -100.9534 0.3528 0.0599 -0.3048 -1.0139 4.9149 29.0369 -110.1248 1.9689 53.9339 11.9119 2.3726 101.9473 -0.2654 -0.2319 -0.2880 -47.5415 22.2701 103.2319 -4.8001 60.0568 1.3520 -1.0634 0.6307 -0.3896 1.2394 -4.5632 1.5062 -47.7362 -0.1039 57.0869 5.9213 52.1199 22.8706 12.1239 14.6766 -3.8106 1.4315 -6.7446 -21.9141 
0.0000 93.1000 0.0000 79.9351 -3.3720 11.9496 -71.0233 -0.0297 87.9908 92.9009 68.3528 -20.7685 -3.0430 16.5944 6.2448 -115.0678 29.4099 146.9289 168.4780 75.6169 -135.4188 0.6819 -11.3488 -12.3641 -57.0517 32.0008 -147.9460 19.8551 -4.9323 -101.0670 0.2365 -0.0147 -0.1557 -1.2608 4.2606 30.8711 -118.0037 3.9440 61.8892 14.0050 2.9907 103.0941 -0.0854 -0.1696 -0.1381 -45.8765 19.1267 98.7673 -6.6199 65.2778 -2.4949 -1.6600 0.3754 -0.0601 0.9116 -3.7441 3.0259 -52.2284 1.6683 61.1457 4.2764 40.7444 21.0430 12.5535 13.7679 -3.9811 2.4828 -5.4171 -22.6619 
0.0000 93.1000 0.0000 79.8383 -7.1134 6.0435 -71.0199 -0.2021 87.9940 92.1112 68.7491 -19.0495 -2.9682 17.4126 4.8416 -120.2872 32.8415 152.0867 157.6506 76.5088 -128.2191 0.6625 -12.1062 -13.2314 -59.2943 30.8998 -149.0136 19.4522 -4.1747 -99.9546 0.2355 -0.1908 0.0033 -1.5337 4.4971 33.7353 -125.1154 3.9641 71.0086 14.8921 3.6917 104.1362 0.3766 -0.0310 0.1713 -45.9190 18.0612 97.7929 -7.2605 65.3423 -0.0663 -1.2330 -1.5580 -0.3929 1.3254 -6.6799 5.0110 -53.6833 2.2331 69.0064 1.7540 36.2218 9.9821 7.6109 8.3304 -2.8736 2.1012 -9.3764 -13.9953 
0.0000 93.1000 0.0000 80.0266 -11.8473 1.9383 -71.0125 -0.0030 87.9954 91.9137 68.9965 -16.9662 -3.2335 17.8803 4.6469 -128.2379 36.5048 157.0186 150.5966 77.8400 -126.1003 0.7047 -13.0087 -15.2307 -62.9714 29.9059 -148.9385 20.7127 -4.0431 -98.9850 0.1088 -0.0838 0.0082 -1.7325 5.3643 36.9866 -130.7083 1.8071 80.0284 14.9842 3.7488 103.9422 0.3509 -0.0629 0.2467 -47.4910 19.6838 98.0634 -5.2057 62.1881 2.9925 -1.2217 -0.5364 -0.5141 0.9071 -6.2857 6.5047 -52.9294 2.0381 77.5769 1.1209 37.0789 1.9407 1.4873 -0.0086 -1.1049 1.0463 -10.0634 -8.0689 
0.0000 93.1000 0.0000 77.7495 -16.2347 -1.9057 -71.0162 -0.1837 87.9966 91.0074 69.2545 -14.6323 -3.2584 17.4016 6.3524 -134.2557 38.5226 162.0920 149.3300 78.7909 -128.0900 0.2926 -13.7112 -18.4447 -65.9445 28.9592 -148.8654 20.8587 -3.4862 -98.0588 0.0187 -0.1420 0.3293 -2.0872 5.7331 39.7268 -133.1222 -0.4443 88.7114 16.1249 2.9587 101.8614 0.4526 0.1695 0.3147 -47.8574 22.0440 97.8673 -3.4072 58.3348 6.6713 -1.4003 1.5369 -0.0419 -0.1071 -3.9541 7.5212 -48.9666 0.8845 82.8669 2.0538 40.0981 6.9363 -0.8015 -7.3881 -0.4963 2.8559 -8.8579 -20.5804 
0.0000 93.1000 0.0000 75.8856 -21.1078 -4.1301 -71.0134 -0.1348 87.9963 90.7931 69.2699 -12.3205 -2.8135 17.1634 7.1407 -138.2080 39.3224 166.4863 149.6092 78.5684 -130.0661 0.3587 -14.4005 -19.8807 -68.0737 30.2052 -148.0013 20.8690 -3.2468 -97.1039 0.1493 -0.0415 0.2364 -2.1704 6.5031 40.9616 -135.2572 -4.5646 94.1167 17.2506 2.0636 99.0253 0.2111 0.1609 0.2933 -49.1061 24.5184 97.1307 -1.8428 54.0714 8.1225 -1.1863 2.5935 -0.2087 -0.2466 -3.3753 8.3938 -45.9346 -1.8586 83.5856 2.9260 41.1378 9.9227 -2.7259 -11.8896 0.2797 3.0365 -6.3419 -24.9468 
0.0000 93.1000 0.0000 75.0853 -25.3373 -6.0125 -71.0145 0.0415 87.9942 93.0106 68.9581 -14.2058 -3.1511 16.7830 7.8772 -137.3685 38.7155 164.1916 157.6172 78.0951 -137.1311 0.0408 -15.4431 -20.4659 -68.9915 29.7248 -146.8564 21.8538 -3.1035 -96.7646 -0.0249 0.0819 0.2613 -2.5530 6.7184 44.2294 -135.1736 -5.7218 100.8844 16.0714 1.0411 94.9858 0.2180 0.1388 0.2346 -52.0718 25.1103 96.9205 -1.7082 51.1569 7.3331 -2.1942 4.0903 0.0411 0.9870 -7.3883 9.2130 -41.0127 -4.0818 85.1186 2.9631 46.0919 11.0989 -5.6697 -13.9821 0.5699 2.6051 -9.0141 -26.6259 
0.0000 93.1000 0.0000 72.7653 -28.9879 -9.0165 -71.0128 0.3860 87.9917 98.9933 68.7557 -17.8993 -2.9354 16.7886 7.5789 -135.3236 37.7610 161.1735 163.5746 77.8847 -142.2131 0.2134 -16.0047 -21.6656 -70.8609 28.3106 -146.9563 23.4080 -2.9531 -96.1880 0.0579 0.3527 0.1844 -2.6969 7.1247 47.3197 -134.8971 -5.6112 105.7883 14.9992 0.0620 90.8142 0.1090 -0.1138 -0.0822 -53.7767 24.4982 97.5714 -1.7737 50.5148 5.2613 -4.1333 2.2148 0.0176 2.3655 -9.4050 10.4759 -36.1356 -5.1136 87.7515 4.9388 52.3201 12.9934 -7.4873 -14.2758 1.0770 3.2715 -14.4923 -31.7810 
